<svg xmlns="http://www.w3.org/2000/svg" viewBox="0 0 300 300">
  <!-- Background Circle -->
  <circle cx="150" cy="150" r="140" fill="#3366FF" />
  <circle cx="150" cy="150" r="130" fill="#0044CC" />
  
  <!-- Outer Ring - Representing Freedom from Wait Times -->
  <circle cx="150" cy="150" r="120" fill="none" stroke="#7BB9FF" stroke-width="6" stroke-dasharray="15,5" />
  
  <!-- Robot Face -->
  <rect x="90" y="100" width="120" height="100" rx="20" fill="#FFFFFF" />
  
  <!-- Eyes -->
  <circle cx="120" cy="135" r="15" fill="#0044CC" />
  <circle cx="180" cy="135" r="15" fill="#0044CC" />
  
  <!-- Animated Eye Highlights -->
  <circle cx="125" cy="130" r="5" fill="#FFFFFF" />
  <circle cx="185" cy="130" r="5" fill="#FFFFFF" />
  
  <!-- Mouth - Digital Waveform -->
  <path d="M105,165 Q120,185 135,165 Q150,145 165,165 Q180,185 195,165" stroke="#0044CC" stroke-width="5" fill="none" />
  
  <!-- Antenna -->
  <line x1="150" y1="100" x2="150" y2="70" stroke="#FFFFFF" stroke-width="6" />
  <circle cx="150" cy="65" r="10" fill="#7BB9FF" />
  
  <!-- Signal Waves - Representing AI Communication -->
  <path d="M180,75 Q200,65 220,75" stroke="#FFFFFF" stroke-width="3" fill="none" />
  <path d="M180,60 Q210,45 240,60" stroke="#FFFFFF" stroke-width="3" fill="none" />
  <path d="M120,75 Q100,65 80,75" stroke="#FFFFFF" stroke-width="3" fill="none" />
  <path d="M120,60 Q90,45 60,60" stroke="#FFFFFF" stroke-width="3" fill="none" />
  
  <!-- Text -->
  <text x="150" y="230" font-family="Arial, sans-serif" font-size="36" font-weight="bold" text-anchor="middle" fill="#FFFFFF">FREEBOT</text>
  <text x="150" y="255" font-family="Arial, sans-serif" font-size="14" text-anchor="middle" fill="#7BB9FF">YOUR AI CUSTOMER SERVICE ALLY</text>
</svg> 